<svg width="134" height="138" viewBox="0 0 134 138" fill="none" xmlns="http://www.w3.org/2000/svg">
<path d="M133.946 68.7201C133.946 103.426 108.889 132.118 76.3413 136.775C73.2968 137.211 70.1831 137.436 67.0231 137.436C63.3736 137.436 59.7935 137.135 56.3021 136.558C24.4398 131.291 0.0999756 102.92 0.0999756 68.7161C0.0999756 30.7652 30.0624 0 67.0231 0C103.984 0 133.946 30.7652 133.946 68.7161V68.7201Z" fill="black"/>
<path d="M101.367 54.4118V67.5409C99.1281 67.3193 96.2301 66.797 93.0123 65.5862C88.8156 64.0073 85.6903 61.8469 83.6478 60.1731V86.7162L83.5977 86.6331C83.6324 87.1594 83.6478 87.6936 83.6478 88.2357C83.6478 101.42 73.2043 112.147 60.36 112.147C47.5157 112.147 37.0722 101.416 37.0722 88.2357C37.0722 75.0551 47.5157 64.3199 60.36 64.3199C61.6163 64.3199 62.8495 64.4228 64.0557 64.6207V77.5638C62.8957 77.1365 61.6548 76.9069 60.36 76.9069C54.2789 76.9069 49.3269 81.9877 49.3269 88.2357C49.3269 94.4837 54.2789 99.5644 60.36 99.5644C66.4411 99.5644 71.3931 94.4797 71.3931 88.2357C71.3931 88.0022 71.3892 87.7687 71.3738 87.5353V35.9527H84.1565C84.2027 37.0646 84.249 38.1844 84.2914 39.2963C84.3761 41.4845 85.1353 43.5856 86.4571 45.3069C88.0102 47.3289 90.2993 49.6793 93.521 51.5549C96.5345 53.3078 99.3632 54.0596 101.367 54.4157V54.4118Z" fill="#FF004F"/>
<path d="M96.9739 43.7518V56.8809C94.7349 56.6593 91.8369 56.137 88.6191 54.9262C84.4224 53.3474 81.2971 51.1869 79.2546 49.5131V76.0562L79.2045 75.9731C79.2392 76.4994 79.2546 77.0336 79.2546 77.5757C79.2546 90.7602 68.8111 101.487 55.9668 101.487C43.1225 101.487 32.679 90.7562 32.679 77.5757C32.679 64.3951 43.1225 53.66 55.9668 53.66C57.2231 53.66 58.4563 53.7629 59.6625 53.9607V66.9038C58.5026 66.4765 57.2616 66.247 55.9668 66.247C49.8857 66.247 44.9337 71.3277 44.9337 77.5757C44.9337 83.8237 49.8857 88.9044 55.9668 88.9044C62.0479 88.9044 66.9999 83.8197 66.9999 77.5757C66.9999 77.3422 66.9961 77.1088 66.9807 76.8753V25.2927H79.7633C79.8096 26.4046 79.8558 27.5244 79.8982 28.6363C79.983 30.8245 80.7422 32.9256 82.064 34.6469C83.617 36.6689 85.9061 39.0193 89.1278 40.8949C92.1414 42.6478 94.97 43.3997 96.9739 43.7558V43.7518Z" fill="#00F7EF"/>
<path d="M99.7717 49.4894V62.6185C97.5327 62.3969 94.6347 61.8746 91.4169 60.6637C87.2202 59.0849 84.0949 56.9244 82.0524 55.2507V81.7938L82.0023 81.7107C82.037 82.2369 82.0524 82.7711 82.0524 83.3132C82.0524 96.4977 71.6089 107.225 58.7646 107.225C45.9203 107.225 35.4768 96.4938 35.4768 83.3132C35.4768 70.1327 45.9203 59.3975 58.7646 59.3975C60.0209 59.3975 61.2541 59.5004 62.4603 59.6983V72.6414C61.3003 72.214 60.0594 71.9845 58.7646 71.9845C52.6835 71.9845 47.7315 77.0652 47.7315 83.3132C47.7315 89.5612 52.6835 94.6419 58.7646 94.6419C64.8457 94.6419 69.7977 89.5573 69.7977 83.3132C69.7977 83.0798 69.7939 82.8463 69.7785 82.6129V31.0303H82.5611C82.6073 32.1422 82.6536 33.262 82.696 34.3739C82.7808 36.5621 83.5399 38.6632 84.8617 40.3845C86.4148 42.4065 88.7039 44.7569 91.9256 46.6325C94.9392 48.3854 97.7678 49.1372 99.7717 49.4933V49.4894Z" fill="white"/>
</svg>
